<svg xmlns="http://www.w3.org/2000/svg" viewBox="0 0 192 192" width="192" height="192">
  <defs>
    <linearGradient id="bg" x1="0%" y1="0%" x2="100%" y2="100%">
      <stop offset="0%" style="stop-color:#00D4FF"/>
      <stop offset="100%" style="stop-color:#C77DFF"/>
    </linearGradient>
    <linearGradient id="flame" x1="0%" y1="0%" x2="0%" y2="100%">
      <stop offset="0%" style="stop-color:#FFD93D"/>
      <stop offset="100%" style="stop-color:#FF6B6B"/>
    </linearGradient>
  </defs>
  <!-- Background -->
  <rect width="192" height="192" rx="38" fill="url(#bg)"/>
  <rect width="192" height="192" rx="38" fill="#0a0a0f" opacity="0.3"/>
  <!-- Flame -->
  <ellipse cx="96" cy="148" rx="14" ry="22" fill="url(#flame)" opacity="0.95"/>
  <ellipse cx="96" cy="150" rx="7" ry="13" fill="#fff" opacity="0.8"/>
  <!-- Left fin -->
  <path d="M76 115 L60 138 L76 128 Z" fill="#e0e0ff" opacity="0.9"/>
  <!-- Right fin -->
  <path d="M116 115 L132 138 L116 128 Z" fill="#e0e0ff" opacity="0.9"/>
  <!-- Rocket body -->
  <rect x="78" y="80" width="36" height="52" rx="18" fill="#ffffff"/>
  <!-- Nose cone -->
  <path d="M78 88 Q78 44 96 38 Q114 44 114 88 Z" fill="#ffffff"/>
  <!-- Window -->
  <circle cx="96" cy="90" r="11" fill="#0a0a0f" opacity="0.5"/>
  <circle cx="96" cy="90" r="7" fill="#00D4FF" opacity="0.95"/>
  <!-- Stars -->
  <circle cx="48" cy="52" r="2.5" fill="#fff" opacity="0.8"/>
  <circle cx="148" cy="48" r="2" fill="#fff" opacity="0.7"/>
  <circle cx="38" cy="110" r="2" fill="#fff" opacity="0.6"/>
  <circle cx="156" cy="105" r="2.5" fill="#fff" opacity="0.7"/>
</svg>
